<svg width="137" height="80" viewBox="0 0 137 80" fill="none" xmlns="http://www.w3.org/2000/svg">
<path fill-rule="evenodd" clip-rule="evenodd" d="M76.8963 35.4647C77.7575 36.5706 78.8328 37.4916 80.058 38.1726C81.2831 38.8536 82.633 39.2806 84.0269 39.4282C85.4208 39.5757 86.8301 39.4408 88.1707 39.0314C89.5113 38.622 90.7556 37.9466 91.8292 37.0455C92.9029 36.1444 93.7839 35.0361 94.4196 33.7868C95.0553 32.5376 95.4326 31.173 95.529 29.7746C95.6255 28.3762 95.439 26.9728 94.9808 25.6481C94.5226 24.3234 93.8021 23.1047 92.8623 22.0647L77.6623 3.95471C75.8917 1.76118 73.3225 0.360459 70.5195 0.060434C67.7165 -0.239591 64.9091 0.585627 62.7143 2.35471C60.5908 4.20913 59.2905 6.83094 59.0994 9.64375C58.9083 12.4566 59.8421 15.2301 61.6953 17.3547L76.8963 35.4647ZM88.0453 32.5387C87.0476 33.3425 85.7716 33.7173 84.4976 33.5808C83.2237 33.4443 82.0561 32.8076 81.2513 31.8107L66.0513 13.7007C65.2091 12.735 64.7847 11.4743 64.8715 10.1959C64.9583 8.91739 65.5492 7.7257 66.5143 6.88271C67.5121 6.07861 68.7883 5.70361 70.0625 5.84012C71.3367 5.97663 72.5045 6.61349 73.3093 7.61071L88.5093 25.7207C89.3514 26.6866 89.7756 27.9473 89.6886 29.2258C89.6016 30.5042 89.0105 31.6958 88.0453 32.5387Z" fill="url(#paint0_linear)"/>
<path fill-rule="evenodd" clip-rule="evenodd" d="M61.5874 35.4647C59.8167 37.6582 57.2475 39.0589 54.4446 39.359C51.6416 39.659 48.8341 38.8338 46.6394 37.0647C44.5158 35.2103 43.2156 32.5885 43.0245 29.7757C42.8334 26.9629 43.7671 24.1893 45.6204 22.0647L60.8204 3.95471C62.591 1.76118 65.1602 0.360459 67.9632 0.060434C70.7661 -0.239591 73.5736 0.585627 75.7684 2.35471C77.8917 4.20928 79.1917 6.83105 79.3828 9.64377C79.5739 12.4565 78.6404 15.23 76.7874 17.3547L61.5874 35.4647ZM50.4384 32.5387C51.4361 33.3425 52.7121 33.7173 53.986 33.5808C55.2599 33.4443 56.4276 32.8076 57.2324 31.8107L72.4324 13.7007C73.2746 12.735 73.699 11.4743 73.6121 10.1959C73.5253 8.91739 72.9344 7.7257 71.9694 6.88271C70.9716 6.07861 69.6953 5.70361 68.4212 5.84012C67.147 5.97663 65.9792 6.61349 65.1744 7.61071L49.9744 25.7207C49.1322 26.6866 48.708 27.9473 48.795 29.2258C48.8821 30.5042 49.4731 31.6958 50.4384 32.5387Z" fill="url(#paint1_linear)"/>
<path d="M10.64 70.8149C11.865 70.8149 13.0083 70.564 14.07 70.0624C15.1433 69.549 16.0883 68.8257 16.905 67.8924V70.2549H22.2775V52.3349H16.905V54.5224C16.1933 53.659 15.2892 52.9882 14.1925 52.5099C13.0958 52.0199 11.9117 51.7749 10.64 51.7749C8.91333 51.7749 7.37917 52.1949 6.0375 53.0349C4.7075 53.8632 3.66333 54.9949 2.905 56.4299C2.14667 57.8532 1.7675 59.4632 1.7675 61.2599C1.7675 63.1032 2.16417 64.7482 2.9575 66.1949C3.75083 67.6299 4.8125 68.7615 6.1425 69.5899C7.48417 70.4065 8.98333 70.8149 10.64 70.8149ZM12.2325 66.2474C10.8442 66.2474 9.695 65.7807 8.785 64.8474C7.875 63.914 7.42 62.7299 7.42 61.2949C7.42 59.8599 7.875 58.6757 8.785 57.7424C9.70667 56.809 10.8558 56.3424 12.2325 56.3424C13.6208 56.3424 14.7642 56.809 15.6625 57.7424C16.5725 58.664 17.0275 59.8482 17.0275 61.2949C17.0275 62.7415 16.5783 63.9315 15.68 64.8649C14.7817 65.7865 13.6325 66.2474 12.2325 66.2474ZM28.5972 70.2549H33.9697V60.2449C33.9697 59.5799 34.1622 58.9615 34.5472 58.3899C34.9439 57.8065 35.4514 57.334 36.0697 56.9724C36.6997 56.6107 37.3647 56.4299 38.0647 56.4299C39.0797 56.4299 40.0364 56.7215 40.9347 57.3049L43.1747 52.7724C42.708 52.4807 42.1364 52.2415 41.4597 52.0549C40.7947 51.8682 40.1472 51.7749 39.5172 51.7749C38.4089 51.7749 37.3705 52.049 36.4022 52.5974C35.4455 53.134 34.6347 53.904 33.9697 54.9074V52.3349H28.5972V70.2549ZM54.343 70.8149C55.5213 70.8149 56.6296 70.6457 57.668 70.3074C58.7063 69.9807 59.5638 69.5665 60.2405 69.0649L58.403 65.4424C57.5746 66.084 56.5013 66.4049 55.183 66.4049C54.1446 66.4049 53.2288 66.1774 52.4355 65.7224C51.6538 65.2674 51.0471 64.6549 50.6155 63.8849C50.1838 63.1032 49.968 62.2399 49.968 61.2949C49.968 60.4315 50.1663 59.609 50.563 58.8274C50.9713 58.0457 51.5605 57.4099 52.3305 56.9199C53.1005 56.4299 54.0396 56.1849 55.148 56.1849C56.4663 56.1849 57.5513 56.5057 58.403 57.1474L60.2405 53.5249C59.5871 53.0115 58.7238 52.5915 57.6505 52.2649C56.5888 51.9382 55.4805 51.7749 54.3255 51.7749C52.8905 51.7749 51.5663 52.0315 50.353 52.5449C49.1396 53.0582 48.0838 53.7582 47.1855 54.6449C46.2871 55.5315 45.5871 56.5465 45.0855 57.6899C44.5838 58.8332 44.333 60.0407 44.333 61.3124C44.333 62.6424 44.5955 63.8849 45.1205 65.0399C45.6455 66.1832 46.3688 67.1865 47.2905 68.0499C48.2121 68.9132 49.2738 69.5899 50.4755 70.0799C51.6888 70.5699 52.978 70.8149 54.343 70.8149ZM71.89 70.8149C73.115 70.8149 74.2583 70.564 75.32 70.0624C76.3933 69.549 77.3383 68.8257 78.155 67.8924V70.2549H83.5275V52.3349H78.155V54.5224C77.4433 53.659 76.5392 52.9882 75.4425 52.5099C74.3458 52.0199 73.1617 51.7749 71.89 51.7749C70.1633 51.7749 68.6292 52.1949 67.2875 53.0349C65.9575 53.8632 64.9133 54.9949 64.155 56.4299C63.3967 57.8532 63.0175 59.4632 63.0175 61.2599C63.0175 63.1032 63.4142 64.7482 64.2075 66.1949C65.0008 67.6299 66.0625 68.7615 67.3925 69.5899C68.7342 70.4065 70.2333 70.8149 71.89 70.8149ZM73.4825 66.2474C72.0942 66.2474 70.945 65.7807 70.035 64.8474C69.125 63.914 68.67 62.7299 68.67 61.2949C68.67 59.8599 69.125 58.6757 70.035 57.7424C70.9567 56.809 72.1058 56.3424 73.4825 56.3424C74.8708 56.3424 76.0142 56.809 76.9125 57.7424C77.8225 58.664 78.2775 59.8482 78.2775 61.2949C78.2775 62.7415 77.8283 63.9315 76.93 64.8649C76.0317 65.7865 74.8825 66.2474 73.4825 66.2474ZM89.8472 70.2549H95.2197V59.6499C95.2197 58.6115 95.5639 57.7424 96.2522 57.0424C96.9405 56.3307 97.8797 55.9749 99.0697 55.9749C100.236 55.9749 101.152 56.3365 101.817 57.0599C102.494 57.7715 102.832 58.769 102.832 60.0524V70.2549H108.205V58.9149C108.205 57.4915 107.907 56.249 107.312 55.1874C106.717 54.114 105.895 53.2799 104.845 52.6849C103.806 52.0782 102.599 51.7749 101.222 51.7749C99.9855 51.7749 98.848 52.014 97.8097 52.4924C96.7714 52.959 95.908 53.5715 95.2197 54.3299V52.3349H89.8472V70.2549ZM121.656 70.8149C122.881 70.8149 124.024 70.564 125.086 70.0624C126.159 69.549 127.104 68.8257 127.921 67.8924V70.2549H133.293V52.3349H127.921V54.5224C127.209 53.659 126.305 52.9882 125.208 52.5099C124.111 52.0199 122.927 51.7749 121.656 51.7749C119.929 51.7749 118.395 52.1949 117.053 53.0349C115.723 53.8632 114.679 54.9949 113.921 56.4299C113.162 57.8532 112.783 59.4632 112.783 61.2599C112.783 63.1032 113.18 64.7482 113.973 66.1949C114.766 67.6299 115.828 68.7615 117.158 69.5899C118.5 70.4065 119.999 70.8149 121.656 70.8149ZM123.248 66.2474C121.86 66.2474 120.711 65.7807 119.801 64.8474C118.891 63.914 118.436 62.7299 118.436 61.2949C118.436 59.8599 118.891 58.6757 119.801 57.7424C120.722 56.809 121.871 56.3424 123.248 56.3424C124.636 56.3424 125.78 56.809 126.678 57.7424C127.588 58.664 128.043 59.8482 128.043 61.2949C128.043 62.7415 127.594 63.9315 126.696 64.8649C125.797 65.7865 124.648 66.2474 123.248 66.2474Z" fill="#F7F7F8"/>
<defs>
<linearGradient id="paint0_linear" x1="77.3143" y1="-1.77688" x2="77.3143" y2="39.5256" gradientUnits="userSpaceOnUse">
<stop stop-color="#0085FF"/>
<stop offset="1" stop-color="#29C8FA"/>
</linearGradient>
<linearGradient id="paint1_linear" x1="61.2037" y1="-1.77387" x2="61.2037" y2="39.4588" gradientUnits="userSpaceOnUse">
<stop stop-color="#0085FF"/>
<stop offset="1" stop-color="#29C8FA"/>
</linearGradient>
</defs>
</svg>
