<?xml version="1.0" standalone="no"?>
<!DOCTYPE svg PUBLIC "-//W3C//DTD SVG 20010904//EN"
 "http://www.w3.org/TR/2001/REC-SVG-20010904/DTD/svg10.dtd">
<svg version="1.0" xmlns="http://www.w3.org/2000/svg"
 width="500.000000pt" height="500.000000pt" viewBox="0 0 500.000000 500.000000"
 preserveAspectRatio="xMidYMid meet">
<metadata>
Created by potrace 1.14, written by Peter Selinger 2001-2017
</metadata>
<g transform="translate(0.000000,500.000000) scale(0.100000,-0.100000)"
fill="#000000" stroke="none">
<path d="M2318 4364 c-141 -25 -265 -76 -395 -161 -91 -60 -157 -122 -252
-233 -127 -150 -150 -176 -207 -246 -115 -139 -308 -369 -314 -374 -3 -3 -84
-99 -180 -215 -96 -115 -177 -212 -180 -215 -4 -3 -53 -61 -110 -130 -57 -69
-106 -127 -109 -130 -4 -3 -71 -84 -151 -180 -80 -96 -147 -177 -150 -180 -26
-23 -89 -112 -129 -183 -54 -93 -92 -189 -118 -300 -25 -105 -24 -339 3 -442
25 -99 27 -105 68 -199 56 -126 178 -276 296 -363 229 -169 500 -226 801 -168
60 12 192 61 259 97 139 74 250 170 380 327 25 30 73 89 108 130 35 42 80 96
100 120 20 24 42 49 47 55 6 6 44 52 85 101 41 50 77 92 80 95 3 3 50 59 105
125 55 66 111 132 123 147 l24 26 46 -56 c26 -31 56 -68 68 -82 12 -14 156
-185 319 -380 163 -195 320 -379 348 -409 131 -136 351 -260 527 -296 120 -25
300 -28 407 -6 399 80 699 391 772 801 9 56 8 285 -3 330 -3 14 -8 39 -12 55
-22 116 -90 268 -170 380 -33 47 -235 291 -418 505 -11 14 -88 106 -171 205
-82 99 -152 182 -155 185 -3 3 -64 75 -135 160 -193 232 -388 464 -395 470 -3
3 -60 70 -126 150 -179 214 -235 268 -359 343 -124 76 -254 125 -387 147 -86
14 -247 11 -340 -6z m345 -581 c229 -108 319 -393 196 -623 -25 -46 -99 -143
-193 -250 -12 -14 -52 -62 -90 -107 -37 -46 -71 -83 -76 -83 -4 0 -25 21 -46
46 -104 125 -217 260 -223 264 -13 10 -78 105 -95 137 -129 253 -8 551 258
639 25 8 74 12 121 10 66 -2 93 -8 148 -33z m-976 -926 c20 -32 71 -103 115
-156 82 -100 95 -115 247 -294 50 -60 91 -112 91 -116 0 -7 -38 -54 -258 -317
-46 -54 -91 -108 -101 -119 -61 -75 -277 -331 -281 -335 -5 -5 -95 -112 -120
-143 -38 -48 -106 -109 -144 -132 -139 -81 -310 -89 -444 -21 -99 51 -179 144
-217 251 -39 112 -23 273 38 377 24 42 41 64 137 178 107 128 393 469 544 649
94 113 184 219 199 235 15 17 45 53 65 79 l37 48 28 -62 c15 -34 44 -89 64
-122z m1868 3 c71 -85 186 -222 255 -305 428 -510 552 -660 574 -698 100 -174
80 -392 -51 -537 -131 -146 -343 -184 -528 -94 -38 18 -88 51 -110 71 -22 21
-146 164 -275 318 -255 305 -332 397 -340 405 -3 3 -25 30 -50 60 -25 30 -49
60 -55 66 -28 31 -101 118 -108 130 -11 19 -13 16 158 218 223 264 280 341
333 447 32 66 50 92 57 85 6 -6 68 -81 140 -166z"/>
</g>
</svg>
