<svg xmlns="http://www.w3.org/2000/svg" version="1.1" xmlnsXlink="http://www.w3.org/1999/xlink" xmlnsSvgjs="http://svgjs.com/svgjs" width="1920" height="1080" preserveAspectRatio="none" viewBox="0 0 1920 1080"><g mask="url(&quot;#SvgjsMask1024&quot;)" fill="none"><rect width="1920" height="1080" x="0" y="0" fill="rgba(21, 67, 96, 1)"></rect><path d="M0,386.101C100.188,395.07,199.973,496.581,288.803,449.386C375.778,403.177,353.608,269.668,390.801,178.473C425.996,92.175,522.915,18.599,501.485,-72.103C479.791,-163.923,352.614,-180.727,289.389,-250.757C228.11,-318.631,223.183,-437.729,139.048,-473.553C54.987,-509.346,-38.881,-456.475,-125.501,-427.417C-209.035,-399.395,-302.577,-378.448,-355.174,-307.76C-406.813,-238.36,-401.52,-144.107,-400.667,-57.607C-399.917,18.393,-373.248,87.557,-350.559,160.095C-324.373,243.813,-331.106,352.962,-257.381,400.492C-183.668,448.015,-87.355,378.281,0,386.101" fill="#11364d"></path><path d="M1920 1779.7089999999998C2047.777 1802.902 2166.803 1702.116 2265.774 1618.0349999999999 2356.393 1541.05 2398.477 1428.88 2455.6710000000003 1324.633 2517.871 1211.262 2625.817 1108.88 2615.85 979.952 2605.799 849.941 2488.366 760.034 2404.314 660.3389999999999 2319.07 559.23 2252.012 415.201 2121.533 393.64 1990.436 371.977 1884.44 494.999 1765.795 554.826 1670.51 602.874 1576.99 644.005 1493.42 710.367 1392.75 790.307 1259.347 855.688 1229.467 980.716 1199.394 1106.552 1261.52 1242.661 1341.998 1343.965 1414.952 1435.798 1552.814 1435.022 1646.467 1505.625 1751.665 1584.932 1790.375 1756.181 1920 1779.7089999999998" fill="#195073"></path></g><defs><mask id="SvgjsMask1024"><rect width="1920" height="1080" fill="#ffffff"></rect></mask></defs></svg>