<svg width="600" height="111" viewBox="0 0 600 111" fill="none" xmlns="http://www.w3.org/2000/svg">
<path fill-rule="evenodd" clip-rule="evenodd" d="M94.8533 99.2953C105.62 112.126 124.352 114.133 136.693 103.778C149.034 93.4223 150.311 74.6261 139.544 61.7951L97.011 11.1059C86.2445 -1.72512 67.5122 -3.73198 55.1711 6.62341C42.83 16.9788 41.5536 35.7751 52.32 48.6061L94.8533 99.2953ZM126.06 91.1054C120.45 95.8124 111.936 94.9002 107.042 89.0679L64.5085 38.3787C59.6146 32.5465 60.1948 24.0027 65.8044 19.2957C71.414 14.5887 79.9287 15.5009 84.8226 21.3332L127.356 72.0224C132.25 77.8547 131.67 86.3984 126.06 91.1054Z" fill="url(#paint0_linear)"/>
<path fill-rule="evenodd" clip-rule="evenodd" d="M51.9998 99.2953C41.2333 112.126 22.501 114.133 10.1599 103.778C-2.18118 93.4223 -3.45764 74.6261 7.30883 61.7951L49.8421 11.1059C60.6086 -1.72512 79.341 -3.73198 91.682 6.62341C104.023 16.9788 105.3 35.7751 94.5331 48.6061L51.9998 99.2953ZM20.7932 91.1054C26.4028 95.8124 34.9175 94.9002 39.8114 89.0679L82.3447 38.3787C87.2385 32.5465 86.6583 24.0027 81.0487 19.2957C75.4391 14.5887 66.9244 15.5009 62.0306 21.3332L19.4973 72.0224C14.6034 77.8547 15.1836 86.3984 20.7932 91.1054Z" fill="url(#paint1_linear)"/>
<path d="M211.248 88.8137C215.504 88.8137 219.477 87.9421 223.166 86.199C226.895 84.4154 230.179 81.9021 233.016 78.6591V86.8679H251.684V24.603H233.016V32.2037C230.543 29.204 227.402 26.8731 223.591 25.2111C219.781 23.5085 215.666 22.6572 211.248 22.6572C205.248 22.6572 199.918 24.1166 195.256 27.0352C190.635 29.9134 187.007 33.8454 184.372 38.8315C181.737 43.777 180.419 49.3711 180.419 55.6138C180.419 62.0187 181.798 67.7344 184.554 72.761C187.311 77.747 191 81.6791 195.621 84.5573C200.283 87.3949 205.492 88.8137 211.248 88.8137ZM216.781 72.9434C211.957 72.9434 207.964 71.3219 204.802 68.079C201.641 64.836 200.06 60.7215 200.06 55.7354C200.06 50.7494 201.641 46.6349 204.802 43.3919C208.005 40.149 211.998 38.5275 216.781 38.5275C221.605 38.5275 225.578 40.149 228.699 43.3919C231.861 46.5943 233.442 50.7088 233.442 55.7354C233.442 60.762 231.881 64.8968 228.76 68.1398C225.638 71.3422 221.646 72.9434 216.781 72.9434Z" fill="white"/>
<path d="M266.158 86.8679H284.825V52.0871C284.825 49.7765 285.494 47.628 286.832 45.6417C288.21 43.6149 289.974 41.9731 292.122 40.7165C294.311 39.4598 296.622 38.8315 299.054 38.8315C302.581 38.8315 305.905 39.8449 309.026 41.8718L316.809 26.1231C315.188 25.1097 313.201 24.2787 310.85 23.6301C308.54 22.9815 306.29 22.6572 304.101 22.6572C300.25 22.6572 296.642 23.6098 293.277 25.5151C289.953 27.3798 287.136 30.0552 284.825 33.5414V24.603H266.158V86.8679Z" fill="white"/>
<path d="M348.131 88.8137C352.225 88.8137 356.076 88.2259 359.684 87.0503C363.292 85.9153 366.271 84.4762 368.622 82.7331L362.238 70.1464C359.36 72.3759 355.63 73.4907 351.049 73.4907C347.442 73.4907 344.259 72.7002 341.503 71.1192C338.787 69.5383 336.679 67.4101 335.179 64.7347C333.679 62.0187 332.929 59.0189 332.929 55.7354C332.929 52.7357 333.618 49.8778 334.997 47.1619C336.416 44.4459 338.463 42.2366 341.138 40.5341C343.814 38.8315 347.077 37.9802 350.928 37.9802C355.508 37.9802 359.278 39.095 362.238 41.3245L368.622 28.7378C366.352 26.9541 363.352 25.4948 359.623 24.3598C355.934 23.2247 352.083 22.6572 348.07 22.6572C343.084 22.6572 338.483 23.549 334.267 25.3327C330.051 27.1163 326.383 29.5485 323.261 32.6293C320.14 35.7101 317.708 39.2369 315.965 43.2095C314.222 47.1821 313.35 51.3777 313.35 55.7962C313.35 60.4175 314.262 64.7347 316.086 68.7478C317.91 72.7204 320.424 76.2066 323.626 79.2064C326.829 82.2061 330.517 84.5573 334.693 86.2598C338.909 87.9624 343.388 88.8137 348.131 88.8137Z" fill="white"/>
<path d="M401.616 88.8137C405.872 88.8137 409.845 87.9421 413.534 86.199C417.263 84.4154 420.547 81.9021 423.384 78.6591V86.8679H442.052V24.603H423.384V32.2037C420.912 29.204 417.77 26.8731 413.959 25.2111C410.149 23.5085 406.034 22.6572 401.616 22.6572C395.616 22.6572 390.286 24.1166 385.624 27.0352C381.003 29.9134 377.375 33.8454 374.74 38.8315C372.105 43.777 370.788 49.3711 370.788 55.6138C370.788 62.0187 372.166 67.7344 374.922 72.761C377.679 77.747 381.368 81.6791 385.989 84.5573C390.651 87.3949 395.86 88.8137 401.616 88.8137ZM407.149 72.9434C402.325 72.9434 398.332 71.3219 395.171 68.079C392.009 64.836 390.428 60.7215 390.428 55.7354C390.428 50.7494 392.009 46.6349 395.171 43.3919C398.373 40.149 402.366 38.5275 407.149 38.5275C411.973 38.5275 415.946 40.149 419.067 43.3919C422.229 46.5943 423.81 50.7088 423.81 55.7354C423.81 60.762 422.249 64.8968 419.128 68.1398C416.007 71.3422 412.014 72.9434 407.149 72.9434Z" fill="white"/>
<path d="M456.526 86.8679H475.194V50.0197C475.194 46.4119 476.389 43.3919 478.781 40.9597C481.173 38.4869 484.436 37.2506 488.571 37.2506C492.624 37.2506 495.807 38.5072 498.117 41.0205C500.468 43.4933 501.644 46.9592 501.644 51.4182V86.8679H520.311V47.4659C520.311 42.5204 519.278 38.2032 517.21 34.5143C515.143 30.7849 512.285 27.8865 508.637 25.8191C505.029 23.7112 500.833 22.6572 496.05 22.6572C491.753 22.6572 487.801 23.4882 484.193 25.1502C480.585 26.7717 477.585 28.8999 475.194 31.5348V24.603H456.526V86.8679Z" fill="white"/>
<path d="M559.564 88.8137C563.821 88.8137 567.793 87.9421 571.482 86.199C575.211 84.4154 578.495 81.9021 581.333 78.6591V86.8679H600V24.603H581.333V32.2037C578.86 29.204 575.718 26.8731 571.908 25.2111C568.097 23.5085 563.983 22.6572 559.564 22.6572C553.565 22.6572 548.234 24.1166 543.572 27.0352C538.951 29.9134 535.323 33.8454 532.688 38.8315C530.053 43.777 528.736 49.3711 528.736 55.6138C528.736 62.0187 530.114 67.7344 532.871 72.761C535.627 77.747 539.316 81.6791 543.937 84.5573C548.599 87.3949 553.808 88.8137 559.564 88.8137ZM565.097 72.9434C560.274 72.9434 556.281 71.3219 553.119 68.079C549.957 64.836 548.376 60.7215 548.376 55.7354C548.376 50.7494 549.957 46.6349 553.119 43.3919C556.321 40.149 560.314 38.5275 565.097 38.5275C569.921 38.5275 573.894 40.149 577.015 43.3919C580.177 46.5943 581.758 50.7088 581.758 55.7354C581.758 60.762 580.198 64.8968 577.076 68.1398C573.955 71.3422 569.962 72.9434 565.097 72.9434Z" fill="white"/>
<defs>
<linearGradient id="paint0_linear" x1="74.0557" y1="115.966" x2="74.0557" y2="0.554868" gradientUnits="userSpaceOnUse">
<stop stop-color="#0085FF"/>
<stop offset="1" stop-color="#29C8FA"/>
</linearGradient>
<linearGradient id="paint1_linear" x1="74.0557" y1="115.966" x2="74.0557" y2="0.554868" gradientUnits="userSpaceOnUse">
<stop stop-color="#0085FF"/>
<stop offset="1" stop-color="#29C8FA"/>
</linearGradient>
</defs>
</svg>
