<svg width="500" height="374" viewBox="0 0 500 374" fill="none" xmlns="http://www.w3.org/2000/svg">
<path fill-rule="evenodd" clip-rule="evenodd" d="M290.099 174.556C309.026 197.112 341.956 200.64 363.651 182.436C385.346 164.232 387.59 131.189 368.663 108.633L293.892 19.5236C274.965 -3.03267 242.035 -6.56063 220.34 11.6436C198.645 29.8479 196.401 62.8908 215.328 85.447L290.099 174.556ZM344.959 160.159C335.097 168.433 320.129 166.83 311.526 156.577L236.754 67.4679C228.151 57.215 229.171 42.1956 239.032 33.9209C248.894 25.6462 263.862 27.2498 272.465 37.5027L347.237 126.612C355.84 136.865 354.82 151.884 344.959 160.159Z" fill="url(#paint0_linear)"/>
<path fill-rule="evenodd" clip-rule="evenodd" d="M214.765 174.556C195.838 197.112 162.907 200.64 141.212 182.436C119.517 164.232 117.273 131.189 136.2 108.633L210.972 19.5236C229.898 -3.03267 262.829 -6.56064 284.524 11.6436C306.219 29.8479 308.463 62.8908 289.536 85.447L214.765 174.556ZM159.905 160.159C169.766 168.433 184.735 166.83 193.338 156.577L268.109 67.4679C276.712 57.215 275.692 42.1955 265.831 33.9209C255.97 25.6462 241.001 27.2499 232.398 37.5027L157.627 126.612C149.024 136.865 150.044 151.884 159.905 160.159Z" fill="url(#paint1_linear)"/>
<path d="M36.7372 373.776C41.8094 373.776 46.5434 372.737 50.9393 370.66C55.3835 368.535 59.2964 365.54 62.6778 361.675V371.457H84.923V297.258H62.6778V306.316C59.7311 302.741 55.9874 299.963 51.4466 297.983C46.9057 295.954 42.0026 294.939 36.7372 294.939C29.5878 294.939 23.2355 296.678 17.6802 300.157C12.1733 303.586 7.84983 308.272 4.7099 314.214C1.56997 320.107 0 326.774 0 334.213C0 341.845 1.64243 348.656 4.92728 354.646C8.21213 360.588 12.608 365.274 18.115 368.704C23.6702 372.085 29.8776 373.776 36.7372 373.776ZM43.331 354.864C37.5826 354.864 32.8243 352.932 29.0564 349.067C25.2885 345.202 23.4046 340.299 23.4046 334.358C23.4046 328.416 25.2885 323.513 29.0564 319.648C32.8727 315.784 37.6309 313.851 43.331 313.851C49.0795 313.851 53.8136 315.784 57.5332 319.648C61.3011 323.465 63.1851 328.368 63.1851 334.358C63.1851 340.348 61.3253 345.275 57.6056 349.139C53.886 352.956 49.1278 354.864 43.331 354.864Z" fill="white"/>
<path d="M102.172 371.457H124.417V330.01C124.417 327.257 125.214 324.696 126.808 322.329C128.451 319.914 130.552 317.958 133.112 316.46C135.721 314.963 138.474 314.214 141.373 314.214C145.575 314.214 149.537 315.421 153.256 317.837L162.531 299.07C160.599 297.862 158.232 296.872 155.43 296.099C152.677 295.326 149.996 294.939 147.387 294.939C142.798 294.939 138.499 296.075 134.489 298.345C130.528 300.567 127.171 303.755 124.417 307.91V297.258H102.172V371.457Z" fill="white"/>
<path d="M199.856 373.776C204.735 373.776 209.324 373.075 213.623 371.675C217.923 370.322 221.473 368.607 224.275 366.53L216.667 351.531C213.237 354.188 208.793 355.516 203.334 355.516C199.035 355.516 195.243 354.574 191.958 352.69C188.721 350.806 186.209 348.27 184.422 345.082C182.635 341.845 181.741 338.27 181.741 334.358C181.741 330.783 182.562 327.377 184.205 324.141C185.895 320.904 188.335 318.272 191.523 316.243C194.711 314.214 198.6 313.199 203.189 313.199C208.648 313.199 213.14 314.528 216.667 317.185L224.275 302.185C221.57 300.06 217.995 298.321 213.551 296.968C209.155 295.616 204.566 294.939 199.784 294.939C193.842 294.939 188.359 296.002 183.335 298.128C178.311 300.253 173.939 303.152 170.22 306.823C166.5 310.494 163.602 314.697 161.525 319.431C159.447 324.165 158.409 329.165 158.409 334.43C158.409 339.937 159.496 345.082 161.67 349.864C163.843 354.598 166.838 358.753 170.655 362.327C174.471 365.902 178.867 368.704 183.842 370.733C188.866 372.761 194.204 373.776 199.856 373.776Z" fill="white"/>
<path d="M263.593 373.776C268.665 373.776 273.399 372.737 277.795 370.66C282.239 368.535 286.152 365.54 289.533 361.675V371.457H311.778V297.258H289.533V306.316C286.586 302.741 282.843 299.963 278.302 297.983C273.761 295.954 268.858 294.939 263.593 294.939C256.443 294.939 250.091 296.678 244.536 300.157C239.029 303.586 234.705 308.272 231.565 314.214C228.425 320.107 226.855 326.774 226.855 334.213C226.855 341.845 228.498 348.656 231.783 354.646C235.067 360.588 239.463 365.274 244.97 368.704C250.526 372.085 256.733 373.776 263.593 373.776ZM270.186 354.864C264.438 354.864 259.68 352.932 255.912 349.067C252.144 345.202 250.26 340.299 250.26 334.358C250.26 328.416 252.144 323.513 255.912 319.648C259.728 315.784 264.486 313.851 270.186 313.851C275.935 313.851 280.669 315.784 284.388 319.648C288.156 323.465 290.04 328.368 290.04 334.358C290.04 340.348 288.181 345.275 284.461 349.139C280.741 352.956 275.983 354.864 270.186 354.864Z" fill="white"/>
<path d="M329.027 371.457H351.272V327.546C351.272 323.247 352.698 319.648 355.548 316.75C358.398 313.803 362.286 312.33 367.214 312.33C372.044 312.33 375.836 313.827 378.59 316.822C381.392 319.769 382.793 323.899 382.793 329.213V371.457H405.038V324.503C405.038 318.61 403.806 313.465 401.342 309.069C398.879 304.625 395.473 301.171 391.125 298.707C386.826 296.195 381.826 294.939 376.126 294.939C371.006 294.939 366.296 295.93 361.997 297.91C357.697 299.843 354.123 302.379 351.272 305.519V297.258H329.027V371.457Z" fill="white"/>
<path d="M451.814 373.776C456.886 373.776 461.62 372.737 466.016 370.66C470.461 368.535 474.373 365.54 477.755 361.675V371.457H500V297.258H477.755V306.316C474.808 302.741 471.064 299.963 466.523 297.983C461.983 295.954 457.08 294.939 451.814 294.939C444.665 294.939 438.312 296.678 432.757 300.157C427.25 303.586 422.927 308.272 419.787 314.214C416.647 320.107 415.077 326.774 415.077 334.213C415.077 341.845 416.719 348.656 420.004 354.646C423.289 360.588 427.685 365.274 433.192 368.704C438.747 372.085 444.955 373.776 451.814 373.776ZM458.408 354.864C452.659 354.864 447.901 352.932 444.133 349.067C440.365 345.202 438.482 340.299 438.482 334.358C438.482 328.416 440.365 323.513 444.133 319.648C447.95 315.784 452.708 313.851 458.408 313.851C464.156 313.851 468.891 315.784 472.61 319.648C476.378 323.465 478.262 328.368 478.262 334.358C478.262 340.348 476.402 345.275 472.683 349.139C468.963 352.956 464.205 354.864 458.408 354.864Z" fill="white"/>
<defs>
<linearGradient id="paint0_linear" x1="253.538" y1="203.863" x2="253.538" y2="0.97543" gradientUnits="userSpaceOnUse">
<stop stop-color="#0085FF"/>
<stop offset="1" stop-color="#29C8FA"/>
</linearGradient>
<linearGradient id="paint1_linear" x1="253.538" y1="203.863" x2="253.538" y2="0.97543" gradientUnits="userSpaceOnUse">
<stop stop-color="#0085FF"/>
<stop offset="1" stop-color="#29C8FA"/>
</linearGradient>
</defs>
</svg>
